<mxfile host="app.diagrams.net" agent="Mozilla/5.0 (Windows NT 10.0; Win64; x64) AppleWebKit/537.36 (KHTML, like Gecko) Chrome/133.0.0.0 Safari/537.36" version="26.0.16">
  <diagram name="Page-1" id="LVca1TQFc_IRdbiSPORM">
    <mxGraphModel dx="819" dy="446" grid="1" gridSize="10" guides="1" tooltips="1" connect="1" arrows="1" fold="1" page="1" pageScale="1" pageWidth="827" pageHeight="1169" math="0" shadow="0">
      <root>
        <mxCell id="0" />
        <mxCell id="1" parent="0" />
        <mxCell id="EmD3onqb7K9XQdKV8UgL-1" value="" style="edgeStyle=orthogonalEdgeStyle;rounded=0;orthogonalLoop=1;jettySize=auto;html=1;" edge="1" parent="1" source="EmD3onqb7K9XQdKV8UgL-3" target="EmD3onqb7K9XQdKV8UgL-4">
          <mxGeometry relative="1" as="geometry" />
        </mxCell>
        <mxCell id="EmD3onqb7K9XQdKV8UgL-2" value="Seller opens dashboard" style="edgeLabel;html=1;align=center;verticalAlign=middle;resizable=0;points=[];" vertex="1" connectable="0" parent="EmD3onqb7K9XQdKV8UgL-1">
          <mxGeometry x="-0.4333" y="-4" relative="1" as="geometry">
            <mxPoint as="offset" />
          </mxGeometry>
        </mxCell>
        <mxCell id="EmD3onqb7K9XQdKV8UgL-3" value="Start" style="ellipse;whiteSpace=wrap;html=1;aspect=fixed;fillColor=#FF6666;strokeColor=#FF6666;fontStyle=1" vertex="1" parent="1">
          <mxGeometry x="440" width="50" height="50" as="geometry" />
        </mxCell>
        <mxCell id="EmD3onqb7K9XQdKV8UgL-50" style="edgeStyle=orthogonalEdgeStyle;rounded=0;orthogonalLoop=1;jettySize=auto;html=1;entryX=0.5;entryY=0;entryDx=0;entryDy=0;" edge="1" parent="1" source="EmD3onqb7K9XQdKV8UgL-4" target="EmD3onqb7K9XQdKV8UgL-19">
          <mxGeometry relative="1" as="geometry" />
        </mxCell>
        <mxCell id="EmD3onqb7K9XQdKV8UgL-51" value="Seller not logged in" style="edgeLabel;html=1;align=center;verticalAlign=middle;resizable=0;points=[];" vertex="1" connectable="0" parent="EmD3onqb7K9XQdKV8UgL-50">
          <mxGeometry x="-0.1714" y="-1" relative="1" as="geometry">
            <mxPoint as="offset" />
          </mxGeometry>
        </mxCell>
        <mxCell id="EmD3onqb7K9XQdKV8UgL-4" value="Seller Dashboard" style="rounded=1;whiteSpace=wrap;html=1;fontStyle=1;fillColor=#ffff88;strokeColor=#36393d;" vertex="1" parent="1">
          <mxGeometry x="410" y="110" width="110" height="50" as="geometry" />
        </mxCell>
        <mxCell id="EmD3onqb7K9XQdKV8UgL-62" style="edgeStyle=orthogonalEdgeStyle;rounded=0;orthogonalLoop=1;jettySize=auto;html=1;entryX=0.5;entryY=0;entryDx=0;entryDy=0;" edge="1" parent="1" source="EmD3onqb7K9XQdKV8UgL-9" target="EmD3onqb7K9XQdKV8UgL-27">
          <mxGeometry relative="1" as="geometry" />
        </mxCell>
        <mxCell id="EmD3onqb7K9XQdKV8UgL-63" value="Seller is authorized" style="edgeLabel;html=1;align=center;verticalAlign=middle;resizable=0;points=[];" vertex="1" connectable="0" parent="EmD3onqb7K9XQdKV8UgL-62">
          <mxGeometry x="0.5292" y="-1" relative="1" as="geometry">
            <mxPoint as="offset" />
          </mxGeometry>
        </mxCell>
        <mxCell id="EmD3onqb7K9XQdKV8UgL-9" value="Check User Permissions" style="rounded=1;whiteSpace=wrap;html=1;fontStyle=1;fillColor=#cdeb8b;strokeColor=#36393d;" vertex="1" parent="1">
          <mxGeometry x="410" y="320" width="110" height="50" as="geometry" />
        </mxCell>
        <mxCell id="EmD3onqb7K9XQdKV8UgL-58" style="edgeStyle=orthogonalEdgeStyle;rounded=0;orthogonalLoop=1;jettySize=auto;html=1;entryX=0.5;entryY=0;entryDx=0;entryDy=0;" edge="1" parent="1" source="EmD3onqb7K9XQdKV8UgL-14" target="EmD3onqb7K9XQdKV8UgL-22">
          <mxGeometry relative="1" as="geometry" />
        </mxCell>
        <mxCell id="EmD3onqb7K9XQdKV8UgL-59" value="Register as seller" style="edgeLabel;html=1;align=center;verticalAlign=middle;resizable=0;points=[];" vertex="1" connectable="0" parent="EmD3onqb7K9XQdKV8UgL-58">
          <mxGeometry x="0.04" y="3" relative="1" as="geometry">
            <mxPoint as="offset" />
          </mxGeometry>
        </mxCell>
        <mxCell id="EmD3onqb7K9XQdKV8UgL-14" value="Unauthorized State" style="rounded=1;whiteSpace=wrap;html=1;fontStyle=1;fillColor=#ffcc99;strokeColor=#36393d;" vertex="1" parent="1">
          <mxGeometry x="250" y="430" width="110" height="50" as="geometry" />
        </mxCell>
        <mxCell id="EmD3onqb7K9XQdKV8UgL-52" style="edgeStyle=orthogonalEdgeStyle;rounded=0;orthogonalLoop=1;jettySize=auto;html=1;exitX=1;exitY=0.25;exitDx=0;exitDy=0;curved=1;entryX=1.014;entryY=0.863;entryDx=0;entryDy=0;entryPerimeter=0;" edge="1" parent="1" source="EmD3onqb7K9XQdKV8UgL-19" target="EmD3onqb7K9XQdKV8UgL-19">
          <mxGeometry relative="1" as="geometry">
            <mxPoint x="590" y="260" as="targetPoint" />
            <Array as="points">
              <mxPoint x="570" y="233" />
              <mxPoint x="570" y="263" />
            </Array>
          </mxGeometry>
        </mxCell>
        <mxCell id="EmD3onqb7K9XQdKV8UgL-53" value="Invalid credentials (Retry)" style="edgeLabel;html=1;align=center;verticalAlign=middle;resizable=0;points=[];" vertex="1" connectable="0" parent="EmD3onqb7K9XQdKV8UgL-52">
          <mxGeometry x="0.0097" y="-1" relative="1" as="geometry">
            <mxPoint x="31" y="2" as="offset" />
          </mxGeometry>
        </mxCell>
        <mxCell id="EmD3onqb7K9XQdKV8UgL-54" style="edgeStyle=orthogonalEdgeStyle;rounded=0;orthogonalLoop=1;jettySize=auto;html=1;entryX=0.5;entryY=0;entryDx=0;entryDy=0;" edge="1" parent="1" source="EmD3onqb7K9XQdKV8UgL-19" target="EmD3onqb7K9XQdKV8UgL-9">
          <mxGeometry relative="1" as="geometry" />
        </mxCell>
        <mxCell id="EmD3onqb7K9XQdKV8UgL-55" value="Valid credentials" style="edgeLabel;html=1;align=center;verticalAlign=middle;resizable=0;points=[];" vertex="1" connectable="0" parent="EmD3onqb7K9XQdKV8UgL-54">
          <mxGeometry x="-0.0857" y="1" relative="1" as="geometry">
            <mxPoint as="offset" />
          </mxGeometry>
        </mxCell>
        <mxCell id="EmD3onqb7K9XQdKV8UgL-19" value="Login State" style="rounded=1;whiteSpace=wrap;html=1;fontStyle=1;fillColor=#ffcccc;strokeColor=#36393d;" vertex="1" parent="1">
          <mxGeometry x="410" y="220" width="110" height="50" as="geometry" />
        </mxCell>
        <mxCell id="EmD3onqb7K9XQdKV8UgL-60" style="edgeStyle=orthogonalEdgeStyle;rounded=0;orthogonalLoop=1;jettySize=auto;html=1;exitX=1;exitY=0.5;exitDx=0;exitDy=0;entryX=0.25;entryY=1;entryDx=0;entryDy=0;" edge="1" parent="1" source="EmD3onqb7K9XQdKV8UgL-22" target="EmD3onqb7K9XQdKV8UgL-9">
          <mxGeometry relative="1" as="geometry" />
        </mxCell>
        <mxCell id="EmD3onqb7K9XQdKV8UgL-61" value="Registration complete" style="edgeLabel;html=1;align=center;verticalAlign=middle;resizable=0;points=[];" vertex="1" connectable="0" parent="EmD3onqb7K9XQdKV8UgL-60">
          <mxGeometry x="0.2992" y="1" relative="1" as="geometry">
            <mxPoint as="offset" />
          </mxGeometry>
        </mxCell>
        <mxCell id="EmD3onqb7K9XQdKV8UgL-22" value="Registration State" style="rounded=1;whiteSpace=wrap;html=1;fontStyle=1;fillColor=#ffcccc;strokeColor=#36393d;" vertex="1" parent="1">
          <mxGeometry x="250" y="530" width="110" height="50" as="geometry" />
        </mxCell>
        <mxCell id="EmD3onqb7K9XQdKV8UgL-64" style="edgeStyle=orthogonalEdgeStyle;rounded=0;orthogonalLoop=1;jettySize=auto;html=1;exitX=0.5;exitY=1;exitDx=0;exitDy=0;entryX=0.5;entryY=0;entryDx=0;entryDy=0;" edge="1" parent="1" source="EmD3onqb7K9XQdKV8UgL-27" target="EmD3onqb7K9XQdKV8UgL-32">
          <mxGeometry relative="1" as="geometry" />
        </mxCell>
        <mxCell id="EmD3onqb7K9XQdKV8UgL-65" value="Enter product details" style="edgeLabel;html=1;align=center;verticalAlign=middle;resizable=0;points=[];" vertex="1" connectable="0" parent="EmD3onqb7K9XQdKV8UgL-64">
          <mxGeometry x="-0.0349" relative="1" as="geometry">
            <mxPoint as="offset" />
          </mxGeometry>
        </mxCell>
        <mxCell id="EmD3onqb7K9XQdKV8UgL-27" value="Product Manager" style="rounded=1;whiteSpace=wrap;html=1;fontStyle=1;fillColor=#cce5ff;strokeColor=#36393d;" vertex="1" parent="1">
          <mxGeometry x="580" y="440" width="110" height="50" as="geometry" />
        </mxCell>
        <mxCell id="EmD3onqb7K9XQdKV8UgL-66" style="edgeStyle=orthogonalEdgeStyle;rounded=0;orthogonalLoop=1;jettySize=auto;html=1;entryX=1.011;entryY=0.7;entryDx=0;entryDy=0;entryPerimeter=0;curved=1;exitX=1;exitY=0.25;exitDx=0;exitDy=0;" edge="1" parent="1" source="EmD3onqb7K9XQdKV8UgL-32" target="EmD3onqb7K9XQdKV8UgL-32">
          <mxGeometry relative="1" as="geometry">
            <mxPoint x="700" y="570" as="targetPoint" />
            <Array as="points">
              <mxPoint x="750" y="548" />
              <mxPoint x="750" y="570" />
            </Array>
          </mxGeometry>
        </mxCell>
        <mxCell id="EmD3onqb7K9XQdKV8UgL-67" value="Invalid details (Retry)" style="edgeLabel;html=1;align=center;verticalAlign=middle;resizable=0;points=[];" vertex="1" connectable="0" parent="EmD3onqb7K9XQdKV8UgL-66">
          <mxGeometry x="-0.0022" relative="1" as="geometry">
            <mxPoint as="offset" />
          </mxGeometry>
        </mxCell>
        <mxCell id="EmD3onqb7K9XQdKV8UgL-68" style="edgeStyle=orthogonalEdgeStyle;rounded=0;orthogonalLoop=1;jettySize=auto;html=1;entryX=0.5;entryY=0;entryDx=0;entryDy=0;" edge="1" parent="1" source="EmD3onqb7K9XQdKV8UgL-32" target="EmD3onqb7K9XQdKV8UgL-35">
          <mxGeometry relative="1" as="geometry" />
        </mxCell>
        <mxCell id="EmD3onqb7K9XQdKV8UgL-69" value="Valid details" style="edgeLabel;html=1;align=center;verticalAlign=middle;resizable=0;points=[];" vertex="1" connectable="0" parent="EmD3onqb7K9XQdKV8UgL-68">
          <mxGeometry x="-0.0618" y="-1" relative="1" as="geometry">
            <mxPoint as="offset" />
          </mxGeometry>
        </mxCell>
        <mxCell id="EmD3onqb7K9XQdKV8UgL-32" value="Add Product Details" style="rounded=1;whiteSpace=wrap;html=1;fontStyle=1;fillColor=#ffff88;strokeColor=#36393d;" vertex="1" parent="1">
          <mxGeometry x="580" y="535" width="110" height="50" as="geometry" />
        </mxCell>
        <mxCell id="EmD3onqb7K9XQdKV8UgL-70" style="edgeStyle=orthogonalEdgeStyle;rounded=0;orthogonalLoop=1;jettySize=auto;html=1;" edge="1" parent="1" source="EmD3onqb7K9XQdKV8UgL-35">
          <mxGeometry relative="1" as="geometry">
            <mxPoint x="635" y="759" as="targetPoint" />
          </mxGeometry>
        </mxCell>
        <mxCell id="EmD3onqb7K9XQdKV8UgL-71" value="Product stored in DB" style="edgeLabel;html=1;align=center;verticalAlign=middle;resizable=0;points=[];" vertex="1" connectable="0" parent="EmD3onqb7K9XQdKV8UgL-70">
          <mxGeometry x="-0.0465" y="1" relative="1" as="geometry">
            <mxPoint as="offset" />
          </mxGeometry>
        </mxCell>
        <mxCell id="EmD3onqb7K9XQdKV8UgL-35" value="Save Product to Database" style="rounded=1;whiteSpace=wrap;html=1;fontStyle=1;fillColor=#cdeb8b;strokeColor=#36393d;" vertex="1" parent="1">
          <mxGeometry x="580" y="640" width="110" height="50" as="geometry" />
        </mxCell>
        <mxCell id="EmD3onqb7K9XQdKV8UgL-72" style="edgeStyle=orthogonalEdgeStyle;rounded=0;orthogonalLoop=1;jettySize=auto;html=1;entryX=0.5;entryY=0;entryDx=0;entryDy=0;" edge="1" parent="1" source="EmD3onqb7K9XQdKV8UgL-38" target="EmD3onqb7K9XQdKV8UgL-44">
          <mxGeometry relative="1" as="geometry" />
        </mxCell>
        <mxCell id="EmD3onqb7K9XQdKV8UgL-73" value="UI updates, product visible" style="edgeLabel;html=1;align=center;verticalAlign=middle;resizable=0;points=[];" vertex="1" connectable="0" parent="EmD3onqb7K9XQdKV8UgL-72">
          <mxGeometry x="-0.0476" y="-2" relative="1" as="geometry">
            <mxPoint as="offset" />
          </mxGeometry>
        </mxCell>
        <mxCell id="EmD3onqb7K9XQdKV8UgL-38" value="Update UI" style="rounded=1;whiteSpace=wrap;html=1;fontStyle=1;fillColor=#ffcccc;strokeColor=#36393d;" vertex="1" parent="1">
          <mxGeometry x="580" y="760" width="110" height="50" as="geometry" />
        </mxCell>
        <mxCell id="EmD3onqb7K9XQdKV8UgL-74" style="edgeStyle=orthogonalEdgeStyle;rounded=0;orthogonalLoop=1;jettySize=auto;html=1;exitX=0.5;exitY=1;exitDx=0;exitDy=0;entryX=0.5;entryY=0;entryDx=0;entryDy=0;" edge="1" parent="1" source="EmD3onqb7K9XQdKV8UgL-44" target="EmD3onqb7K9XQdKV8UgL-45">
          <mxGeometry relative="1" as="geometry" />
        </mxCell>
        <mxCell id="EmD3onqb7K9XQdKV8UgL-44" value="Product Published/Visible" style="rounded=1;whiteSpace=wrap;html=1;fontStyle=1;fillColor=#cce5ff;strokeColor=#36393d;" vertex="1" parent="1">
          <mxGeometry x="580" y="870" width="110" height="50" as="geometry" />
        </mxCell>
        <mxCell id="EmD3onqb7K9XQdKV8UgL-45" value="End" style="ellipse;whiteSpace=wrap;html=1;aspect=fixed;fillColor=#FF6666;strokeColor=#FF6666;fontStyle=1" vertex="1" parent="1">
          <mxGeometry x="610" y="980" width="50" height="50" as="geometry" />
        </mxCell>
        <mxCell id="EmD3onqb7K9XQdKV8UgL-56" style="edgeStyle=orthogonalEdgeStyle;rounded=0;orthogonalLoop=1;jettySize=auto;html=1;entryX=0.542;entryY=0;entryDx=0;entryDy=0;entryPerimeter=0;" edge="1" parent="1" source="EmD3onqb7K9XQdKV8UgL-9" target="EmD3onqb7K9XQdKV8UgL-14">
          <mxGeometry relative="1" as="geometry" />
        </mxCell>
        <mxCell id="EmD3onqb7K9XQdKV8UgL-57" value="User is not a seller" style="edgeLabel;html=1;align=center;verticalAlign=middle;resizable=0;points=[];" vertex="1" connectable="0" parent="EmD3onqb7K9XQdKV8UgL-56">
          <mxGeometry x="0.5315" y="1" relative="1" as="geometry">
            <mxPoint as="offset" />
          </mxGeometry>
        </mxCell>
      </root>
    </mxGraphModel>
  </diagram>
</mxfile>
